<svg width="249" height="242" viewBox="0 0 249 242" fill="none" xmlns="http://www.w3.org/2000/svg">
<rect width="237" height="242" rx="54" fill="url(#paint0_linear_260_8)"/>
<path d="M167.883 69.1367V129.562C167.883 140.304 165.954 149.532 162.097 157.247C158.288 164.962 152.795 170.895 145.617 175.045C138.488 179.146 129.919 181.197 119.909 181.197C109.948 181.197 101.379 179.146 94.2012 175.045C87.0234 170.895 81.5059 164.962 77.6484 157.247C73.8398 149.532 71.9355 140.304 71.9355 129.562V69.1367H94.4941V126.778C94.4941 134.444 95.4463 140.841 97.3506 145.968C99.3037 151.095 102.16 154.977 105.92 157.613C109.68 160.201 114.343 161.495 119.909 161.495C125.476 161.495 130.139 160.201 133.898 157.613C137.658 154.977 140.49 151.095 142.395 145.968C144.348 140.841 145.324 134.444 145.324 126.778V69.1367H167.883Z" fill="white"/>
<defs>
<linearGradient id="paint0_linear_260_8" x1="18" y1="15.5" x2="242.5" y2="242" gradientUnits="userSpaceOnUse">
<stop stop-color="#EFF5FF"/>
<stop offset="1" stop-color="#1368E8"/>
</linearGradient>
</defs>
</svg>
